<?xml version="1.0"?>
<svg xmlns="http://www.w3.org/2000/svg" xmlns:xlink="http://www.w3.org/1999/xlink" version="1.1" id="Layer_1" x="0px" y="0px" viewBox="0 0 496.158 496.158" style="enable-background:new 0 0 496.158 496.158;" xml:space="preserve" width="512px" height="512px" class=""><g><path style="fill:#272E4F" d="M248.082,0.003C111.07,0.003,0,111.063,0,248.085c0,137.001,111.07,248.07,248.082,248.07  c137.006,0,248.076-111.069,248.076-248.07C496.158,111.062,385.088,0.003,248.082,0.003z" data-original="#A3D5E0" class="active-path" data-old_color="#272e4f"/><path style="fill:#5B5B5B;" d="M301.816,71.033H194.343c-6.767,0-12.253,5.486-12.253,12.254v116.521  c0,6.767,5.486,12.252,12.253,12.252h107.474c6.766,0,12.252-5.485,12.252-12.252V83.287  C314.068,76.519,308.582,71.033,301.816,71.033z" data-original="#5B5B5B"/><path style="fill:#333333;" d="M290.78,140.509c-4.016-12.731-9.587-20.755-21.416-20.755l-7.835-2.25h-25.057l-7.834,2.25  c-11.831,0-17.4,8.023-21.416,20.755c-4.017,12.746-8.92,63.7-8.92,63.7c0,12.988,9.585,23.521,21.41,23.521h58.576  c11.824,0,21.41-10.532,21.41-23.521C299.699,204.209,294.795,153.255,290.78,140.509z" data-original="#333333"/><g>
	<path style="fill:#E9C29C;" d="M198.303,204.209c0,12.988,9.585,23.521,21.41,23.521l4.424-23.448L198.303,204.209z" data-original="#E9C29C"/>
	<path style="fill:#E9C29C;" d="M248.129,26.1c-23.467,0-42.49,19.025-42.49,42.486c0,23.476,19.023,42.498,42.49,42.498   c23.469,0,42.49-19.022,42.49-42.498C290.619,45.126,271.598,26.1,248.129,26.1z" data-original="#E9C29C"/>
</g><g>
	<path style="fill:#343433;" d="M235.392,68.749c-3.213,0-5.82,2.759-5.82,6.156s2.607,6.149,5.82,6.149   c3.219,0,5.822-2.752,5.822-6.149S238.611,68.749,235.392,68.749z" data-original="#343433"/>
	<path style="fill:#343433;" d="M260.617,68.749c-3.213,0-5.817,2.759-5.817,6.156s2.604,6.149,5.817,6.149   c3.215,0,5.826-2.752,5.826-6.149S263.832,68.749,260.617,68.749z" data-original="#343433"/>
</g><g>
	<path style="fill:#FFFFFF;" d="M262.437,70.113c-1.28,0-2.322,1.098-2.322,2.46c0,1.354,1.042,2.461,2.322,2.461   c1.288,0,2.328-1.106,2.328-2.461C264.766,71.211,263.725,70.113,262.437,70.113z" data-original="#FFFFFF"/>
	<path style="fill:#FFFFFF;" d="M237.146,70.113c-1.283,0-2.324,1.098-2.324,2.46c0,1.354,1.041,2.461,2.324,2.461   c1.291,0,2.332-1.106,2.332-2.461C239.478,71.211,238.437,70.113,237.146,70.113z" data-original="#FFFFFF"/>
</g><path style="fill:#DDDAD9;" d="M248.129,26.1c-23.467,0-42.49,19.025-42.49,42.486c0,0,16.366-9.455,27.244-16.976  c7.182-4.966,7.279-9.089,15.424-9.089c8.168,0,8.236,4.146,15.363,9.132c10.742,7.514,26.949,16.933,26.949,16.933  C290.619,45.126,271.598,26.1,248.129,26.1z" data-original="#DDDAD9"/><path style="fill:#E5E5E5;" d="M248.129,26.1c-23.467,0-42.49,19.025-42.49,42.486c0,0,16.366-9.455,27.244-16.976  c7.182-4.966,7.279-9.089,15.424-9.089L248.129,26.1z" data-original="#E5E5E5"/><path style="fill:#E9C29C;" d="M274.115,204.281l4.424,23.448c11.824,0,21.41-10.532,21.41-23.521L274.115,204.281z" data-original="#E9C29C"/><path style="fill:#3A3A3A;" d="M277.807,119.754l-16.188-2.25l12.497,86.777l29.096-0.072  C303.211,204.209,294.35,119.754,277.807,119.754z" data-original="#3A3A3A"/><g>
	
		<ellipse transform="matrix(-0.4363 -0.8998 0.8998 -0.4363 359.9577 329.5199)" style="fill:#DDDAD9;" cx="283.196" cy="52.008" rx="7.911" ry="13.393" data-original="#DDDAD9"/>
	
		<ellipse transform="matrix(-0.4837 -0.8752 0.8752 -0.4837 373.7437 346.7961)" style="fill:#DDDAD9;" cx="289.157" cy="63.165" rx="7.756" ry="13.393" data-original="#DDDAD9"/>
	
		<ellipse transform="matrix(-0.4803 -0.8771 0.8771 -0.4803 370.5729 364.5184)" style="fill:#DDDAD9;" cx="293.278" cy="72.474" rx="7.618" ry="13.393" data-original="#DDDAD9"/>
</g><g>
	
		<ellipse transform="matrix(-0.8998 -0.4362 0.4362 -0.8998 381.8857 191.7094)" style="fill:#E5E5E5;" cx="212.952" cy="52.013" rx="13.392" ry="7.911" data-original="#E5E5E5"/>
	
		<ellipse transform="matrix(-0.8752 -0.4837 0.4837 -0.8752 357.5807 218.5899)" style="fill:#E5E5E5;" cx="206.983" cy="63.176" rx="13.392" ry="7.757" data-original="#E5E5E5"/>
	
		<ellipse transform="matrix(-0.8771 -0.4804 0.4804 -0.8771 346.0173 233.4722)" style="fill:#E5E5E5;" cx="202.884" cy="72.46" rx="13.393" ry="7.618" data-original="#E5E5E5"/>
</g><path style="fill:#3A3A3A;" d="M220.504,119.754c-13.432,0-25.65,55.68-25.338,76.619c0.074,4.85,0.205,7.836,0.205,7.836  l28.766,0.072l1.117-7.908l11.219-78.869L220.504,119.754z" data-original="#3A3A3A"/><g>
	<path style="fill:#E5E5E5;" d="M195.166,196.373c0.074,4.85,0.205,7.836,0.205,7.836l28.766,0.072l1.117-7.908H195.166z" data-original="#E5E5E5"/>
	<path style="fill:#E5E5E5;" d="M272.984,196.373l1.131,7.908l29.096-0.072c0,0,0.119-2.986,0.174-7.836H272.984z" data-original="#E5E5E5"/>
	<polygon style="fill:#E5E5E5;" points="251.757,124.314 249.101,121.638 247.996,121.695 245.953,124.314 238.485,145.939    240.953,149.305 244.463,147.731 249.111,150.054 252.51,147.648 256.443,149.879 259.225,145.939  " data-original="#E5E5E5"/>
	<path style="fill:#E5E5E5;" d="M248.74,117.978c-2.67,0-4.838,2.191-4.838,4.896c0,2.71,2.168,4.901,4.838,4.901   c2.673,0,4.839-2.191,4.839-4.901C253.579,120.17,251.413,117.978,248.74,117.978z" data-original="#E5E5E5"/>
</g><path style="fill:#FBBF96;" d="M308.682,221.763l-29.907-20.458c0,0-3.801-4.612-18.573-5.722  c-23.311-1.744-69.586-12.405-69.586-12.405c-28.508,8.467-25.988,33.751-25.988,33.751l74.615,14.279c0,0,34.351-2.67,42.908,2.677  c20.799,12.979,31.116-8.437,31.116-8.437L308.682,221.763z" data-original="#FBBF96" class=""/><path style="fill:#FDD6B2;" d="M293.228,211.124c-1.521,6.08,7.4,15.839,11.625,16.458c3.824,0.566,8.321-3.655,8.321-3.655  L293.228,211.124z" data-original="#FDD6B2" class=""/><path style="fill:#EDAC80;" d="M277.267,218.573c-7.334-3.908-17.146-3.243-17.146-3.243l-23.935,1.27l33.697,4.161l35.758,9.498  C305.642,230.259,282.939,221.586,277.267,218.573z" data-original="#EDAC80"/><g>
	<path style="fill:#FDD6B2;" d="M274.147,198.864c-0.62-0.16-1.262,0.229-1.415,0.872l-1.322,5.819   c-0.143,0.635,0.229,1.27,0.871,1.415c0.643,0.176,1.277-0.221,1.422-0.864l1.324-5.82   C275.18,199.659,274.79,199.01,274.147,198.864z" data-original="#FDD6B2" class=""/>
	<path style="fill:#FDD6B2;" d="M269.758,197.709c-0.627-0.146-1.273,0.237-1.415,0.873l-0.62,3.143   c-0.16,0.642,0.223,1.27,0.865,1.43c0.635,0.146,1.277-0.237,1.441-0.878l0.607-3.137   C270.782,198.505,270.404,197.863,269.758,197.709z" data-original="#FDD6B2" class=""/>
</g><path style="fill:#FBBF96;" d="M339.293,324.307c-5.384-8.673-16.791-11.342-25.467-5.957l-67.15,40.977  c-8.681,5.385-12.971,13.707-7.579,22.38c5.388,8.679,12.306,8.817,24.03,3.731l49.49-23.464  C321.297,356.582,344.678,332.994,339.293,324.307z" data-original="#FBBF96" class=""/><path style="fill:#EDAC80;" d="M245.226,360.261c-4.96,3.074-8.86,5.713-8.601,14.316l48.681-34.685  c1.938-1.337,12.049-12.802,13.303-14.614L245.226,360.261z" data-original="#EDAC80"/><g>
	<path style="fill:#F1A977;" d="M335.488,173.625l-88.789,30.348l3.563,28.092l-16.681,14.126l77.964,116.426   c0,0,40.241-20.964,62.997-42.042c22.76-21.07,45.475-56.802,45.475-56.802L335.488,173.625z" data-original="#F1A977"/>
	<path style="fill:#F1A977;" d="M337.752,285.584c-5.381-8.68-16.783-11.349-25.464-5.957l-95.077,58.981   c-8.684,5.385-11.354,16.779-5.965,25.461c5.381,8.681,16.783,11.349,25.465,5.966l95.087-58.982   C340.471,305.669,343.133,294.273,337.752,285.584z" data-original="#F1A977"/>
</g><path style="fill:#EDAC80;" d="M216.244,339.228c-4.963,3.074-7.896,8.167-7.773,15.456l42.606-32.466  c1.938-1.315,2.257-5.896,3.511-7.717L216.244,339.228z" data-original="#EDAC80"/><g>
	<path style="fill:#F1A977;" d="M280.701,223.889c-5.314-7.449-57.795,28.947-61.99,31.923l-95.188,65.007   c-10.699,7.649-12.432,17.997-7.108,25.454c5.308,7.441,15.663,9.169,23.104,3.854l108.773-74.821   c7.453-5.315,32.799-19.586,27.483-27.027L280.701,223.889z" data-original="#F1A977"/>
	<path style="fill:#F1A977;" d="M316.444,338.472c-4.167-6.784-13.456-8.628-20.768-4.123l-101.217,61.222   c-7.3,4.489-9.843,13.628-5.672,20.405c4.176,6.769,13.163,7.916,19.079,4.802l102.223-60.16   C318.162,357.044,320.623,345.246,316.444,338.472z" data-original="#F1A977"/>
</g><path style="fill:#EDAC80;" d="M199.361,393.499c-4.184,2.562,35.552-19.091,41.143-22.409l47.395-31.647  c1.625-1.102,13.086-8.405,14.164-9.881L199.361,393.499z" data-original="#EDAC80"/><path style="fill:#F1A977;" d="M273.642,281.975c-5.445-8.153-16.982-9.988-25.758-4.115l-121.795,80.067  c-8.788,5.866-11.488,17.231-6.035,25.383c5.445,8.146,16.566,9.148,23.709,5.033l123.082-78.814  C276.609,304.747,279.092,290.121,273.642,281.975z" data-original="#F1A977"/><path style="fill:#EDAC80;" d="M132.023,355.15c-5.023,3.351,42.883-25.146,49.629-29.497l56.879-41.163  c1.965-1.429,15.724-10.951,16.985-12.817L132.023,355.15z" data-original="#EDAC80"/><path style="fill:#F1A977;" d="M291.982,309.057c-5.314-7.67-16.32-9.254-24.596-3.525l-114.781,78.117  c-8.283,5.713-10.686,16.588-5.369,24.274c5.314,7.679,15.916,8.451,22.665,4.421l116.094-76.978  C295.161,330.629,297.294,316.713,291.982,309.057z" data-original="#F1A977"/><path style="fill:#EDAC80;" d="M158.211,380.91c-4.734,3.266,40.466-24.604,46.813-28.85l53.552-40.066  c1.851-1.393,14.814-10.677,15.988-12.482L158.211,380.91z" data-original="#EDAC80"/><path style="fill:#FBBF96;" d="M251.899,359.326l-67.149-40.977c-8.682-5.385-20.084-2.716-25.468,5.957  c-5.385,8.688,17.995,32.275,26.676,37.667l49.49,23.464c11.721,5.086,18.642,4.947,24.03-3.731  C264.87,373.033,260.576,364.711,251.899,359.326z" data-original="#FBBF96" class=""/><path style="fill:#EDAC80;" d="M253.349,360.261l-53.387-34.982c1.254,1.813,11.364,13.277,13.308,14.614l48.676,34.685  C262.205,365.974,258.305,363.335,253.349,360.261z" data-original="#EDAC80"/><g>
	<path style="fill:#FBBF96;" d="M248.312,232.064l3.564-28.092l-88.791-30.348l-84.529,90.147c0,0,22.715,35.731,45.475,56.802   c22.758,21.078,62.998,42.042,62.998,42.042l77.959-116.426L248.312,232.064z" data-original="#FBBF96" class=""/>
	<path style="fill:#FBBF96;" d="M281.359,338.608l-95.072-58.981c-8.681-5.392-20.084-2.723-25.464,5.957   c-5.381,8.689-2.72,20.085,5.954,25.469l95.088,58.982c8.676,5.383,20.083,2.715,25.463-5.966   C292.717,355.388,290.048,343.993,281.359,338.608z" data-original="#FBBF96" class=""/>
</g><path style="fill:#EDAC80;" d="M282.331,339.228l-38.344-24.727c1.255,1.82,1.571,6.401,3.507,7.717l42.611,32.466  C290.227,347.395,287.295,342.303,282.331,339.228z" data-original="#EDAC80"/><path style="fill:#FBBF96;" d="M375.051,320.818l-95.187-65.007c-4.202-2.976-56.676-39.372-61.991-31.923l4.926,24.39  c-5.319,7.441,20.029,21.712,27.479,27.027l108.779,74.821c7.438,5.314,17.793,3.587,23.104-3.854  C387.483,338.815,385.748,328.468,375.051,320.818z" data-original="#FBBF96" class=""/><g>
	<path style="fill:#FDD6B2;" d="M377.672,328.895l-6.647-4.733c0,0-3.464,1.445-7.755,7.579c-5.33,7.608-4.818,8.29-5.354,10.744   l6.658,4.735c4.715,3.357,11.475,1.98,15.094-3.082C383.288,339.075,382.394,332.246,377.672,328.895z" data-original="#FDD6B2" class=""/>
	<path style="fill:#FDD6B2;" d="M320.582,289.088c-0.547-0.397-1.281-0.26-1.67,0.283l-12.115,16.963   c-0.379,0.535-0.26,1.277,0.279,1.668c0.539,0.382,1.288,0.26,1.679-0.276l12.103-16.971   C321.244,290.22,321.113,289.463,320.582,289.088z" data-original="#FDD6B2" class=""/>
	<path style="fill:#FDD6B2;" d="M312.613,290.044c-0.467-0.337-1.133-0.222-1.473,0.252l-5.984,8.397   c-0.348,0.475-0.226,1.132,0.248,1.461c0.475,0.352,1.137,0.237,1.484-0.236l5.973-8.391   C313.198,291.054,313.106,290.395,312.613,290.044z" data-original="#FDD6B2" class=""/>
</g><path style="fill:#FBBF96;" d="M304.112,395.571l-101.214-61.222c-7.312-4.505-16.604-2.661-20.771,4.123  c-4.174,6.772-1.716,18.563,6.351,22.142l102.228,60.165c5.92,3.114,14.906,1.967,19.082-4.802  C313.955,409.199,311.416,400.06,304.112,395.571z" data-original="#FBBF96" class=""/><path style="fill:#EDAC80;" d="M299.214,393.499l-102.701-63.938c1.078,1.476,12.534,8.779,14.163,9.881l47.396,31.647  C263.662,374.408,303.397,396.06,299.214,393.499z" data-original="#EDAC80"/><g>
	<path style="fill:#FDD6B2;" d="M304.318,401.445l-6.049-3.702c0,0-2.914,1.453-6.271,7.021c-4.176,6.921-3.694,7.463-4.02,9.643   l6.058,3.71c4.298,2.632,10.069,1.033,12.917-3.564C309.795,409.949,308.617,404.084,304.318,401.445z" data-original="#FDD6B2" class=""/>
	<path style="fill:#FDD6B2;" d="M254.951,372.497c-0.482-0.306-1.133-0.16-1.438,0.321l-9.736,15.281   c-0.318,0.489-0.176,1.131,0.316,1.437c0.479,0.313,1.113,0.176,1.424-0.32l9.747-15.288   C255.57,373.453,255.433,372.81,254.951,372.497z" data-original="#FDD6B2" class=""/>
	<path style="fill:#FDD6B2;" d="M248.083,373.698c-0.429-0.269-0.994-0.146-1.27,0.29l-4.814,7.549   c-0.275,0.443-0.149,0.994,0.286,1.269c0.425,0.284,1.002,0.146,1.27-0.282l4.811-7.556   C248.634,374.539,248.522,373.98,248.083,373.698z" data-original="#FDD6B2" class=""/>
</g><path style="fill:#FBBF96;" d="M372.485,357.928l-121.794-80.067c-8.78-5.873-20.313-4.038-25.76,4.115  c-5.456,8.151-2.967,22.791,6.811,27.563l-0.539-0.346l123.607,79.15c7.145,4.115,18.264,3.113,23.709-5.033  C383.973,375.159,381.269,363.794,372.485,357.928z" data-original="#FBBF96" class=""/><path style="fill:#EDAC80;" d="M366.551,355.15l-123.492-83.478c1.262,1.866,15.021,11.389,16.986,12.817l56.878,41.163  C323.668,330.005,371.575,358.501,366.551,355.15z" data-original="#EDAC80"/><g>
	<path style="fill:#FDD6B2;" d="M372.455,365.178l-7.262-4.849c0,0-3.656,1.651-8.058,8.359c-5.464,8.329-4.887,9.018-5.384,11.687   l7.281,4.841c5.166,3.441,12.354,1.744,16.068-3.786C378.81,375.893,377.633,368.612,372.455,365.178z" data-original="#FDD6B2" class=""/>
	<path style="fill:#FDD6B2;" d="M313.018,327.244c-0.585-0.405-1.385-0.261-1.786,0.329l-12.703,18.362   c-0.397,0.589-0.26,1.385,0.34,1.79c0.578,0.405,1.361,0.252,1.771-0.33l12.703-18.369   C313.749,328.451,313.603,327.657,313.018,327.244z" data-original="#FDD6B2" class=""/>
	<path style="fill:#FDD6B2;" d="M304.502,328.398c-0.497-0.352-1.211-0.222-1.574,0.29l-6.265,9.078   c-0.363,0.528-0.233,1.224,0.283,1.583c0.505,0.352,1.224,0.229,1.575-0.282l6.279-9.086   C305.141,329.462,305.03,328.766,304.502,328.398z" data-original="#FDD6B2" class=""/>
</g><path style="fill:#FBBF96;" d="M345.971,383.648l-114.782-78.117c-8.275-5.729-19.284-4.145-24.601,3.525  c-5.305,7.653-3.176,21.562,5.979,26.303l116.107,76.984c6.75,4.03,17.35,3.258,22.665-4.421  C356.654,400.236,354.253,389.361,345.971,383.648z" data-original="#FBBF96" class=""/><path style="fill:#EDAC80;" d="M340.363,380.91L224.01,299.512c1.171,1.806,14.138,11.09,15.988,12.482l53.548,40.066  C299.898,356.307,345.098,384.176,340.363,380.91z" data-original="#EDAC80"/><g>
	<path style="fill:#FDD6B2;" d="M345.84,390.554l-6.853-4.741c0,0-3.503,1.529-7.794,7.846c-5.33,7.848-4.795,8.521-5.307,11.053   l6.859,4.727c4.864,3.357,11.736,1.842,15.357-3.357C351.721,400.855,350.711,393.904,345.84,390.554z" data-original="#FDD6B2" class=""/>
	<path style="fill:#FDD6B2;" d="M289.795,353.521c-0.547-0.396-1.308-0.282-1.697,0.276l-12.383,17.3   c-0.39,0.551-0.26,1.314,0.299,1.705c0.535,0.398,1.293,0.268,1.689-0.283l12.375-17.299   C290.48,354.678,290.346,353.912,289.795,353.521z" data-original="#FDD6B2" class=""/>
	<path style="fill:#FDD6B2;" d="M281.674,354.486c-0.475-0.337-1.156-0.222-1.504,0.26l-6.11,8.551   c-0.356,0.489-0.237,1.154,0.248,1.499c0.482,0.359,1.159,0.245,1.511-0.245L281.93,356   C282.262,355.51,282.166,354.845,281.674,354.486z" data-original="#FDD6B2" class=""/>
</g><g>
	<path style="fill:#F5B78C;" d="M260.301,272.209c-4.119-1.263-6.589-5.171-5.609-9.438c0.588-2.593-3.369-3.869-3.97-1.246   c-1.476,6.455,1.935,12.695,8.34,14.646C261.62,276.95,262.866,272.988,260.301,272.209z" data-original="#F5B78C"/>
	<path style="fill:#F5B78C;" d="M241.276,307.038c-6.845-2.814-9.931-9.667-7.621-16.673c0.841-2.547-3.231-3.357-4.062-0.842   c-2.856,8.666,1.419,17.782,9.84,21.224C241.889,311.757,243.766,308.047,241.276,307.038z" data-original="#F5B78C"/>
	<path style="fill:#F5B78C;" d="M218.378,330.647c-4.872-1.92-7.426-6.923-5.835-11.978c0.795-2.531-3.056-4.076-3.862-1.514   c-2.271,7.189,1.093,14.577,8.175,17.354C219.35,335.488,220.879,331.618,218.378,330.647z" data-original="#F5B78C"/>
	<path style="fill:#F5B78C;" d="M194.119,356.949c-3.557-1.522-5.614-5.231-4.283-9.032c0.871-2.486-2.838-4.375-3.721-1.853   c-2.042,5.845,0.309,12.107,6.145,14.609C194.711,361.728,196.585,358.012,194.119,356.949z" data-original="#F5B78C"/>
</g><path style="fill:#EBF3F6;" d="M190.24,176.738l-81.723-63.602c-7.59-5.91-21.051-1.314-30.061,10.264L21.8,196.21  c-9.017,11.587-10.172,25.751-2.577,31.671l81.716,63.593C108.537,297.386,197.84,182.642,190.24,176.738z" data-original="#EBF3F6"/><path style="fill:#F1A977;" d="M307.955,183.178c0,0-46.27,10.661-69.585,12.405c-14.769,1.109-18.569,5.722-18.569,5.722  l-29.908,20.458l-4.584,3.686c0,0,10.316,21.415,31.115,8.437c8.555-5.347,42.909-2.677,42.909-2.677l74.614-14.279  C333.947,216.929,336.463,191.644,307.955,183.178z" data-original="#F1A977"/><path style="fill:#FDD6B2;" d="M205.346,211.124l-19.945,12.803c0,0,4.496,4.222,8.316,3.655  C197.942,226.963,206.867,217.204,205.346,211.124z" data-original="#FDD6B2" class=""/><path style="fill:#EDAC80;" d="M238.45,215.33c0,0-9.809-0.665-17.143,3.243c-5.675,3.013-28.374,11.686-28.374,11.686l35.758-9.498  l33.693-4.161L238.45,215.33z" data-original="#EDAC80"/><g>
	<path style="fill:#FDD6B2;" d="M227.166,205.556l-1.324-5.819c-0.152-0.643-0.799-1.032-1.418-0.872   c-0.643,0.146-1.029,0.795-0.879,1.422l1.326,5.82c0.146,0.644,0.78,1.04,1.422,0.864   C226.932,206.825,227.307,206.19,227.166,205.556z" data-original="#FDD6B2" class=""/>
	<path style="fill:#FDD6B2;" d="M230.851,201.725l-0.619-3.143c-0.142-0.636-0.787-1.019-1.418-0.873   c-0.643,0.154-1.021,0.796-0.877,1.431l0.608,3.137c0.165,0.641,0.804,1.024,1.442,0.878   C230.631,202.994,231.013,202.366,230.851,201.725z" data-original="#FDD6B2" class=""/>
</g><path style="fill:#EBF3F6;" d="M484.361,196.21l-56.657-72.81c-9.013-11.578-22.47-16.174-30.064-10.264l-81.719,63.602  c-7.599,5.904,81.704,120.647,89.299,114.735l81.715-63.593C494.529,221.961,493.373,207.797,484.361,196.21z" data-original="#EBF3F6"/><path style="fill:#686868;" d="M182.271,164.25L73.043,72.404C34.202,111.102,8.164,162.613,1.702,220.041l82.897,69.705  C92.851,296.17,190.531,170.658,182.271,164.25z" data-original="#686868"/><path style="fill:#767777" d="M423.734,73.024l-104.826,88.608c-8.253,6.409,89.428,131.922,97.68,125.505l78.014-65.957  C488.391,163.592,462.487,111.905,423.734,73.024z" data-original="#767777" class=""/></g> </svg>
