<?xml version="1.0"?>
<svg xmlns="http://www.w3.org/2000/svg" xmlns:xlink="http://www.w3.org/1999/xlink" version="1.1" id="Capa_1" x="0px" y="0px" viewBox="0 0 512 512" style="enable-background:new 0 0 512 512;" xml:space="preserve" width="512px" height="512px" class=""><g><circle style="fill:#272E4F" cx="256" cy="256" r="256" data-original="#6C819F" class="" data-old_color="#272e4f"/><path style="fill:#1E223F" d="M512,256c0-3.106-0.075-6.195-0.185-9.274l-117.149-117.15l-277.333,34.55l35.296,35l16.25,37.445  l-38.317,56.871l66.657,66.674l-79.887,34.55l116.355,116.355C241.043,511.656,248.481,512,256,512C397.385,512,512,397.385,512,256  z" data-original="#384C6C" class="active-path" data-old_color="#1F2341"/><rect x="152.63" y="146.85" style="fill:#F1CB30;" width="16.25" height="107" data-original="#F1CB30" class=""/><rect x="343.12" y="146.85" style="fill:#E48C21;" width="16.25" height="107" data-original="#E48C21" class=""/><path style="fill:#F9EB97" d="M160.754,305.672L160.754,305.672c-23.98,0-43.42-19.44-43.42-43.42v-25.681h86.841v25.681  C204.174,286.232,184.734,305.672,160.754,305.672z" data-original="#F9EB97" class=""/><g>
	<path style="fill:#F1CB30;" d="M351.246,305.672L351.246,305.672c-23.98,0-43.42-19.44-43.42-43.42v-25.681h86.841v25.681   C394.667,286.232,375.227,305.672,351.246,305.672z" data-original="#F1CB30" class=""/>
	<rect x="257.35" y="129.58" style="fill:#F1CB30;" width="137.31" height="34.55" data-original="#F1CB30" class=""/>
</g><rect x="117.33" y="129.58" style="fill:#F9EB97" width="138.67" height="34.55" data-original="#F9EB97" class=""/><polygon style="fill:#F1CB30;" points="273.275,166.166 245.158,155.324 256,370.958 273.275,370.958 " data-original="#F1CB30" class=""/><polygon style="fill:#F9EB97" points="238.724,166.165 238.724,370.958 256,370.958 256,155.324 " data-original="#F9EB97" class=""/><polygon style="fill:#E48C21;" points="394.667,360.116 256,360.116 245.158,377.391 256,394.667 394.667,394.667 " data-original="#E48C21" class=""/><rect x="117.33" y="360.12" style="fill:#F1CB30;" width="138.67" height="34.55" data-original="#F1CB30" class=""/><path style="fill:#E48C21;" d="M285.518,146.851c0-16.302-13.215-29.518-29.518-29.518l0,0l-10.842,29.518L256,176.369l0,0  C272.302,176.369,285.518,163.153,285.518,146.851z" data-original="#E48C21" class=""/><path style="fill:#F1CB30;" d="M226.482,146.851c0,16.302,13.215,29.518,29.517,29.518v-59.035  C239.698,117.334,226.482,130.549,226.482,146.851z" data-original="#F1CB30" class=""/></g> </svg>
