<?xml version="1.0"?>
<svg xmlns="http://www.w3.org/2000/svg" xmlns:xlink="http://www.w3.org/1999/xlink" version="1.1" id="Layer_1" x="0px" y="0px" viewBox="0 0 512 512" style="enable-background:new 0 0 512 512;" xml:space="preserve" width="512px" height="512px" class=""><g><circle style="fill:#272E4F" cx="256" cy="256" r="256" data-original="#324A5E" class="active-path" data-old_color="#272e4f"/><path style="fill:#2B3B4E;" d="M269.621,511.638c132.406-6.942,238.151-114.491,242.241-247.634l-151.948-151.95l-156.222,95.229  l-81.294,23.53l63.055,63.055l-48.211,85.392L269.621,511.638z" data-original="#2B3B4E" class=""/><rect x="137.24" y="201.128" style="fill:#FC6F58;" width="237.52" height="178.131" data-original="#FC6F58"/><rect x="256.293" y="201.128" style="fill:#F1543F;" width="118.467" height="178.131" data-original="#F1543F" class=""/><rect x="226.314" y="290.185" style="fill:#FFD15D;" width="59.378" height="89.069" data-original="#FFD15D"/><rect x="256.293" y="290.185" style="fill:#F9B54C;" width="29.393" height="89.069" data-original="#F9B54C" class=""/><polygon style="fill:#FFD15D;" points="389.603,230.812 122.397,230.812 152.086,112.054 359.914,112.054 " data-original="#FFD15D"/><polygon style="fill:#F9B54C;" points="359.914,112.054 256.288,112.054 256.288,230.812 389.603,230.812 " data-original="#F9B54C" class=""/><rect x="161.754" y="250.156" style="fill:#E6F3FF;" width="50.39" height="50.39" data-original="#E6F3FF" class=""/><rect x="299.856" y="250.156" style="fill:#CFDBE6" width="50.39" height="50.39" data-original="#CFDBE6" class=""/></g> </svg>
